<?xml version="1.0" encoding="utf-8"?>
<!-- Generator: Adobe Illustrator 26.2.1, SVG Export Plug-In . SVG Version: 6.00 Build 0)  -->
<svg version="1.1" xmlns="http://www.w3.org/2000/svg" xmlns:xlink="http://www.w3.org/1999/xlink" x="0px" y="0px"
	 viewBox="0 0 600 800" style="enable-background:new 0 0 600 800;" xml:space="preserve">
<style type="text/css">
	.st0{fill:none;stroke:#000000;stroke-miterlimit:10;}
</style>
<g id="Layer_1">
</g>
<g id="Draw">
	<path class="st0" d="M275.65,334.62l-1.88-133.85l-0.12-8.69l-1.91-136.18l-0.1-7.17l-0.19-13.79l-0.25-18.07c0,0-18.7-4.24-18.7,0
		V759h29.1l-5.8-414.08L275.65,334.62z"/>
	<path class="st0" d="M413.75,55.91c5.37-7.07,0-9.06,0-9.06l-142.1,1.89l0.1,7.17H413.75z"/>
	<path class="st0" d="M411.26,199.24c0,0,2.49,3.48,4.88,0c2.39-3.48,0-7.15,0-7.15H273.65l0.12,8.69L411.26,199.24z"/>
	<ellipse class="st0" cx="405.68" cy="260.95" rx="11.65" ry="2.69"/>
	<ellipse class="st0" cx="405.68" cy="255.58" rx="11.65" ry="2.69"/>
	<ellipse class="st0" cx="405.68" cy="250.2" rx="11.65" ry="2.69"/>
	<ellipse class="st0" cx="405.68" cy="244.83" rx="11.65" ry="2.69"/>
	<ellipse class="st0" cx="405.68" cy="239.45" rx="11.65" ry="2.69"/>
	<ellipse class="st0" cx="405.68" cy="234.08" rx="11.65" ry="2.69"/>
	<ellipse class="st0" cx="405.68" cy="228.7" rx="11.65" ry="2.69"/>
	<ellipse class="st0" cx="405.68" cy="223.33" rx="11.65" ry="2.69"/>
	<ellipse class="st0" cx="405.68" cy="217.95" rx="11.65" ry="2.69"/>
	<ellipse class="st0" cx="405.68" cy="212.58" rx="11.65" ry="2.69"/>
	<ellipse class="st0" cx="405.68" cy="266.12" rx="6.27" ry="2.69"/>
	<ellipse class="st0" cx="409.27" cy="115.83" rx="11.65" ry="2.69"/>
	<ellipse class="st0" cx="409.27" cy="110.45" rx="11.65" ry="2.69"/>
	<ellipse class="st0" cx="409.27" cy="105.08" rx="11.65" ry="2.69"/>
	<ellipse class="st0" cx="409.27" cy="99.7" rx="11.65" ry="2.69"/>
	<ellipse class="st0" cx="409.27" cy="94.33" rx="11.65" ry="2.69"/>
	<ellipse class="st0" cx="409.27" cy="88.95" rx="11.65" ry="2.69"/>
	<ellipse class="st0" cx="409.27" cy="83.58" rx="11.65" ry="2.69"/>
	<ellipse class="st0" cx="409.27" cy="78.2" rx="11.65" ry="2.69"/>
	<ellipse class="st0" cx="409.27" cy="72.83" rx="11.65" ry="2.69"/>
	<ellipse class="st0" cx="409.27" cy="67.45" rx="11.65" ry="2.69"/>
	<ellipse class="st0" cx="409.27" cy="121" rx="6.27" ry="2.69"/>
	<line class="st0" x1="405.68" y1="55.91" x2="405.68" y2="64.77"/>
	<line class="st0" x1="409.27" y1="55.91" x2="409.27" y2="64.77"/>
	<path class="st0" d="M403,199.33c0,5.18,0,10.56,0,10.56"/>
	<line class="st0" x1="407.67" y1="199.33" x2="407.67" y2="209.89"/>
	<ellipse class="st0" cx="124.56" cy="114.12" rx="11.65" ry="2.69"/>
	<ellipse class="st0" cx="124.56" cy="108.74" rx="11.65" ry="2.69"/>
	<ellipse class="st0" cx="124.56" cy="103.37" rx="11.65" ry="2.69"/>
	<ellipse class="st0" cx="124.56" cy="97.99" rx="11.65" ry="2.69"/>
	<ellipse class="st0" cx="124.56" cy="92.62" rx="11.65" ry="2.69"/>
	<ellipse class="st0" cx="124.56" cy="87.24" rx="11.65" ry="2.69"/>
	<ellipse class="st0" cx="124.56" cy="81.87" rx="11.65" ry="2.69"/>
	<ellipse class="st0" cx="124.56" cy="76.49" rx="11.65" ry="2.69"/>
	<ellipse class="st0" cx="124.56" cy="71.12" rx="11.65" ry="2.69"/>
	<ellipse class="st0" cx="124.56" cy="65.74" rx="11.65" ry="2.69"/>
	<ellipse class="st0" cx="124.56" cy="119.28" rx="6.27" ry="2.69"/>
	<line class="st0" x1="120.36" y1="55.44" x2="120.36" y2="63.24"/>
	<line class="st0" x1="126.35" y1="55.31" x2="126.35" y2="63.09"/>
	<path class="st0" d="M110.57,56.2c-5.37-7.07,0-9.06,0-9.06l142.1,1.89l-0.1,7.17H110.57z"/>
	<polyline class="st0" points="213,51.67 259.67,84.56 311.67,51.67 	"/>
	<polyline class="st0" points="319,196.44 262.33,250.2 213,199.33 	"/>
	<path class="st0" d="M114.42,199.42c0,0-2.49,3.48-4.88,0c-2.39-3.48,0-7.15,0-7.15h142.48l-0.12,8.69L114.42,199.42z"/>
</g>
</svg>
